<?xml version="1.0" encoding="utf-8"?>
<!-- Generator: Adobe Illustrator 24.2.3, SVG Export Plug-In . SVG Version: 6.00 Build 0)  -->
<svg version="1.1" id="Layer_1" xmlns="http://www.w3.org/2000/svg" xmlns:xlink="http://www.w3.org/1999/xlink" x="0px" y="0px"
	 width="459.7px" height="368.5px" viewBox="0 0 459.7 368.5" style="enable-background:new 0 0 459.7 368.5;" xml:space="preserve"
	>
<style type="text/css">
	.st0{fill:#00A23D;}
	.st1{fill:#FFFFFF;}
	.st2{fill:#070000;}
</style>
<path class="st0" d="M231.1,0c63.1,0,114.3,51.2,114.3,114.3c0,63.1-51.2,114.3-114.3,114.3c-63.1,0-114.3-51.2-114.3-114.3
	C116.9,51.2,168,0,231.1,0z"/>
<path class="st1" d="M292.2,87.2c-0.4-4.5-2.7-8.6-6.4-11.2c-3.6-2.6-7.3-5.1-11.1-7.5c-15,6.9-34.3,16.7-49.8,24.9
	c-5.3,2.8-8.8,8.2-8.9,14.2c-0.2,7.8-0.3,15.6-0.3,23.4L204,111.7l-11.7,7.7c0.1-7.4,0.3-14.8,0.7-22.2c0.3-5.9,3.7-11.1,8.9-13.9
	c16.3-8.6,36.4-19.2,52-26.8c-5.2-2.7-10.6-5.3-16-7.7c-3.8-1.6-8.1-1.6-11.9,0c-17.1,7-33.4,15.7-48.6,26.1
	c-3.7,2.5-6.1,6.5-6.5,10.9c-1.6,17-2,34-1,51c0.2,4.1,2.2,8,5.4,10.6c14.7,12.6,30.9,23.4,48.2,32c4.3,2,9.3,2,13.5-0.1
	c17.2-8.7,33.6-18.8,49-30.4c3.5-2.5,5.7-6.5,6.1-10.8C293.3,121.2,293.4,104.2,292.2,87.2z"/>
<path class="st2" d="M442,303.7c0-7.6-8.4-13.8-18.1-13.8c-9.7-0.7-18.2,6.6-18.9,16.3c0,0.6-0.1,1.1,0,1.7c0,10.9,7.4,17.9,19,17.9
	c10.1,0,18.1-6.2,18.1-14L442,303.7L442,303.7L442,303.7z M421.1,274.3c7.5-0.4,14.8,2.1,20.6,6.8h0.2v-29h17.7v87.6h-16.4v-6.2
	h-0.2c-5.7,5.6-13.5,8.5-21.5,8c-18,0.9-33.4-12.9-34.4-31c0-0.9-0.1-1.7,0-2.6c-0.3-18.3,14.3-33.3,32.6-33.6
	C420.2,274.3,420.7,274.3,421.1,274.3L421.1,274.3z M309.1,276.1h17.2v6h0.2c5.9-5.2,13.6-8,21.5-7.8c18,0,30.5,11.9,30.5,29.1v36.2
	h-17.8v-33.9c0-9.7-6.4-15.6-16.5-15.6c-8.6-0.8-16.4,5.5-17.2,14.1c0,0.5-0.1,1-0.1,1.5v33.9h-17.8V276.1L309.1,276.1z M282.3,301
	c-0.8-7.6-7.4-12.4-16.9-12.4c-9.6,0-16.2,4.8-17.2,12.4H282.3L282.3,301L282.3,301z M265,274.3c18.1-0.9,33.6,13,34.5,31.2
	c0.1,1,0.1,2,0,3v5H248c0.6,8.3,7.4,13.6,18,13.6c7.6-0.1,14.8-3.5,19.6-9.5l11,11c-7.7,8.6-18.9,13.3-30.5,12.8
	c-22.2,0-35.6-13.3-35.6-33.5c-0.4-18.2,14-33.3,32.2-33.7C263.5,274.3,264.3,274.3,265,274.3L265,274.3z M173.9,315.1
	c2.5,8.2,9,12.2,19.2,12.2c9.2,0,14.5-2,14.5-5.5c0-3.7-3.8-5.4-15.7-7.2c-23.3-3.6-31.5-9.2-31.5-20.6c0-11.8,11.8-19.7,29.3-19.7
	c16,0,30.5,8.2,33.8,19.2l-16.2,4.9c-3.3-6.7-10.3-10.6-17.7-10c-7.3,0-12.1,2.2-12.1,5.5c0,3.4,3.4,4.6,17.4,7
	c21.5,3.4,30,9.2,30,20.7c0,11.9-12.7,19.8-31.8,19.8c-8.3,0.3-16.6-1.9-23.7-6.1c-6.1-3.5-10.5-9.4-12-16.3L173.9,315.1
	L173.9,315.1z M116.6,289.9c-9.9,0.1-17.9,8.2-17.9,18.1c0.1,9.9,8.2,17.9,18.1,17.9c9.9-0.1,17.9-8.1,17.9-18
	c0.4-9.5-6.9-17.6-16.4-18C117.8,289.9,117.2,289.9,116.6,289.9L116.6,289.9z M116.6,274.3c20.7,0,35.9,14.7,35.9,33.6
	c0,18.8-15.1,33.6-35.9,33.6c-18.5,1.2-34.6-12.8-35.8-31.3c-1.3-18.5,12.8-34.6,31.3-35.8C113.6,274.2,115.1,274.2,116.6,274.3
	L116.6,274.3L116.6,274.3z M54.2,304.3c0-7.2-8.2-13.8-17.3-13.8c-11.5,0-19.2,7-19.2,17.4c-0.6,9.3,6.3,17.3,15.6,17.9
	c1,0.1,1.9,0,2.9,0c9.9,0,18-6.2,18-14V304.3L54.2,304.3z M16.3,342.8c4.8,6.9,12.9,10.9,21.3,10.4c10,0,17.3-6.4,17.3-15v-4.6h-0.2
	c-5.5,5.3-12.9,8.1-20.5,7.7C15.9,341.9,0.6,327.4,0,309.1c-0.5-18.3,13.9-33.7,32.2-34.2c0.5,0,0.9,0,1.4,0
	c7.8-0.5,15.4,2.2,21.1,7.4H55v-6.2h17V338c0,18-14.3,30.5-34.3,30.5c-13.1,0.7-25.8-4.9-34.1-15.1L16.3,342.8z"/>
</svg>
