<?xml version="1.0" encoding="UTF-8"?>
<!DOCTYPE svg PUBLIC "-//W3C//DTD SVG 1.1//EN" "http://www.w3.org/Graphics/SVG/1.1/DTD/svg11.dtd">
<!-- Creator: CorelDRAW X5 -->
<svg xmlns="http://www.w3.org/2000/svg" xml:space="preserve" width="419.884mm" height="91.44mm" style="shape-rendering:geometricPrecision; text-rendering:geometricPrecision; image-rendering:optimizeQuality; fill-rule:evenodd; clip-rule:evenodd"
viewBox="0 0 41988 9144"
 xmlns:xlink="http://www.w3.org/1999/xlink">
 <defs>
  <style type="text/css">
   <![CDATA[
    .fil0 {fill:#ED3237}
   ]]>
  </style>
 </defs>
 <g id="Layer_x0020_1">
  <metadata id="CorelCorpID_0Corel-Layer"/>
  <polygon class="fil0" points="16081,2415 19675,2415 17906,8752 20393,8752 22162,2415 25063,2415 25731,1661 23381,1661 23691,1309 26047,1309 26381,933 23969,933 24279,435 26822,435 27210,0 17188,0 "/>
  <polygon class="fil0" points="6802,8838 0,8838 1044,7151 4956,7174 6736,66 9005,66 7189,7174 "/>
  <path class="fil0" d="M17373 8749l-2207 0 -379 -420c-1053,629 -2311,948 -3563,763 -1542,-304 -2469,-1240 -2338,-2770 206,-1068 674,-1959 1366,-2699 -772,-1548 -489,-2609 6,-3572l5335 0 -892 2034c-692,-1396 -2881,-1044 -2794,823l2612 2889c224,-274 450,-901 674,-1610l1640 817c-248,751 -531,1500 -918,2126l6 6 1452 1613 0 0zm-3888 -1873l-2022 -2102c-2099,1521 30,4002 2022,2102z"/>
  <path class="fil0" d="M25987 5436c0,12 0,30 -3,57 -3,24 -6,54 -12,86 -6,30 -12,63 -21,98 -9,36 -18,66 -33,95 -12,27 -27,51 -45,72 -18,18 -39,27 -60,27l-1190 0 -164 814 1011 0c24,0 42,9 51,24 12,18 18,42 18,72 0,15 -3,33 -3,57 -3,24 -9,54 -15,86 -3,30 -9,63 -18,95 -9,33 -21,63 -33,89 -12,27 -30,51 -45,69 -18,15 -36,24 -57,24l-1011 0 -188 939 1205 0c21,0 39,9 48,30 9,15 15,42 15,78 0,12 0,30 -3,57 0,27 -6,57 -12,86 -6,33 -12,66 -21,98 -9,33 -18,63 -33,92 -12,27 -27,51 -45,69 -18,15 -36,24 -57,24l-1679 0c-27,0 -51,-3 -75,-12 -24,-6 -42,-21 -54,-39 -15,-18 -27,-39 -30,-66 -6,-27 -6,-60 0,-98l581 -2907c15,-75 48,-131 95,-164 45,-33 98,-51 155,-51l1658 0c45,0 66,33 66,98l0 0zm1905 1518l513 1458c18,63 30,110 33,149 3,36 -9,66 -33,83 -24,21 -63,33 -116,39 -57,6 -131,6 -230,6 -72,0 -125,0 -167,-3 -42,-3 -72,-9 -95,-18 -24,-9 -39,-18 -48,-33 -12,-12 -18,-30 -27,-51l-406 -1214 -856 1214c-15,21 -30,39 -48,51 -15,15 -39,24 -69,33 -30,9 -72,15 -119,18 -51,3 -113,3 -191,3 -89,0 -161,0 -212,-6 -51,-6 -86,-18 -101,-36 -15,-18 -15,-48 3,-83 15,-36 45,-83 89,-143l1097 -1470 -465 -1357c-18,-60 -30,-107 -33,-146 -3,-36 9,-63 33,-81 21,-21 60,-33 116,-36 54,-6 131,-9 227,-9 72,0 131,3 173,6 42,3 75,9 98,18 24,9 42,21 51,36 12,15 21,36 27,60l355 1088 781 -1103c12,-18 27,-36 45,-51 15,-12 36,-24 63,-33 30,-6 66,-12 110,-15 45,-3 104,-6 179,-6 95,0 170,3 224,9 54,3 86,15 104,36 15,18 15,45 0,81 -15,39 -45,86 -86,146l-1020 1360 0 0zm3748 -796c0,95 -12,197 -33,301 -21,104 -57,209 -104,307 -48,101 -110,197 -188,286 -78,89 -170,170 -280,242 -110,69 -242,125 -388,164 -146,42 -316,60 -513,60l-349 0 -215 1068c-3,18 -12,33 -24,48 -15,12 -36,24 -66,33 -30,9 -66,15 -110,18 -45,6 -101,6 -164,6 -66,0 -116,0 -161,-6 -42,-3 -75,-9 -98,-18 -24,-9 -39,-21 -48,-33 -9,-12 -12,-30 -6,-48l602 -3003c15,-81 48,-143 101,-182 51,-42 113,-63 188,-63l731 0c89,0 170,3 239,9 72,6 140,18 209,30 104,21 200,54 283,95 83,45 152,98 212,161 60,66 104,140 134,230 30,86 48,185 48,295l0 0zm-713 75c0,-81 -21,-152 -60,-215 -39,-60 -101,-101 -182,-125 -39,-12 -78,-21 -122,-24 -45,-6 -95,-6 -149,-6l-298 0 -227 1133 310 0c98,0 182,-12 250,-36 72,-21 131,-54 185,-89 54,-39 98,-84 134,-134 39,-54 69,-107 92,-164 21,-57 39,-113 48,-173 12,-57 18,-113 18,-167l0 0zm3563 -167c0,113 -15,221 -45,328 -30,110 -78,212 -143,307 -66,98 -152,185 -253,262 -104,78 -233,140 -382,185 84,33 152,98 209,194 57,98 104,230 140,400l128 677c9,39 15,72 21,101 6,30 9,57 9,78 0,15 -6,30 -18,42 -12,12 -30,21 -63,30 -30,9 -69,15 -119,18 -51,3 -116,3 -194,3 -72,0 -131,0 -173,-6 -42,-3 -78,-9 -101,-21 -24,-9 -39,-21 -45,-36 -9,-15 -15,-33 -18,-54l-128 -740c-12,-86 -33,-161 -57,-227 -21,-66 -54,-119 -89,-164 -36,-45 -81,-78 -131,-98 -54,-21 -116,-33 -191,-33l-215 0 -253 1273c0,18 -9,33 -24,48 -15,12 -36,24 -63,33 -30,9 -66,15 -110,18 -45,6 -101,6 -167,6 -66,0 -116,0 -158,-6 -45,-3 -78,-9 -101,-18 -24,-9 -39,-21 -48,-33 -9,-12 -12,-30 -6,-48l608 -3033c15,-75 45,-131 89,-164 48,-33 104,-51 167,-51l895 0c158,0 298,15 426,45 125,30 233,75 322,134 92,60 161,137 209,227 48,92 72,200 72,322zm-728 128c0,-48 -9,-92 -27,-134 -15,-42 -42,-78 -78,-110 -36,-30 -84,-51 -140,-69 -60,-18 -128,-24 -209,-24l-385 0 -191 948 325 0c128,0 239,-18 328,-54 89,-39 161,-86 218,-146 54,-57 95,-122 119,-194 27,-72 39,-143 39,-218zm3489 -757c0,12 0,30 -3,57 -3,24 -9,54 -12,86 -6,30 -12,63 -21,98 -9,36 -21,66 -33,95 -12,27 -30,51 -48,72 -18,18 -36,27 -57,27l-1190 0 -164 814 1011 0c24,0 42,9 51,24 12,18 15,42 15,72 0,15 0,33 -3,57 -3,24 -6,54 -12,86 -3,30 -12,63 -21,95 -9,33 -18,63 -33,89 -12,27 -27,51 -45,69 -18,15 -36,24 -57,24l-1011 0 -188 939 1208 0c21,0 36,9 45,30 12,15 18,42 18,78 0,12 -3,30 -3,57 -3,27 -6,57 -12,86 -6,33 -12,66 -21,98 -9,33 -21,63 -33,92 -12,27 -27,51 -45,69 -18,15 -36,24 -60,24l-1676 0c-27,0 -54,-3 -75,-12 -24,-6 -42,-21 -57,-39 -15,-18 -24,-39 -30,-66 -6,-27 -3,-60 3,-98l581 -2907c15,-75 45,-131 92,-164 48,-33 101,-51 158,-51l1655 0c45,0 69,33 69,98l0 0zm2281 158c0,15 -3,36 -6,63 -3,24 -6,54 -12,83 -3,30 -12,63 -18,95 -9,30 -18,60 -30,86 -12,27 -24,48 -39,66 -15,18 -30,27 -45,27 -24,0 -54,-12 -89,-33 -36,-21 -81,-45 -134,-72 -54,-24 -113,-48 -185,-69 -69,-24 -149,-33 -239,-33 -92,0 -170,12 -236,39 -63,24 -116,60 -158,101 -42,42 -72,89 -89,143 -21,51 -30,104 -30,158 0,60 15,116 45,164 33,48 72,89 125,131 51,39 110,78 176,116 66,39 134,78 203,119 66,39 134,86 200,134 66,51 125,104 179,170 51,66 92,137 122,221 30,83 48,182 48,289 0,161 -33,310 -98,450 -66,137 -158,256 -277,361 -122,101 -265,182 -435,239 -170,60 -358,89 -564,89 -113,0 -215,-9 -310,-30 -92,-15 -179,-39 -250,-66 -72,-24 -134,-51 -182,-81 -51,-30 -89,-57 -113,-81 -24,-27 -36,-66 -36,-116 0,-15 3,-36 6,-63 3,-30 9,-60 15,-89 6,-33 12,-66 21,-98 9,-33 18,-66 30,-92 12,-27 27,-51 42,-69 15,-15 30,-24 45,-24 30,0 66,12 104,39 42,27 92,57 152,89 60,30 131,63 215,89 81,27 179,42 295,42 101,0 191,-15 268,-39 78,-27 140,-63 191,-107 54,-45 92,-95 119,-155 27,-57 39,-122 39,-191 0,-66 -15,-122 -45,-167 -33,-51 -72,-92 -122,-134 -51,-42 -110,-81 -173,-116 -66,-36 -131,-72 -197,-113 -69,-42 -134,-86 -197,-134 -66,-48 -122,-104 -173,-170 -51,-66 -92,-137 -122,-224 -33,-83 -48,-182 -48,-292 0,-155 30,-298 92,-429 63,-128 149,-242 256,-334 110,-95 242,-167 394,-221 152,-51 322,-78 504,-78 86,0 170,6 248,18 78,15 149,30 212,51 63,18 119,42 164,66 45,24 75,45 92,60 18,18 30,36 39,51 6,21 12,42 12,69l0 0zm2454 0c0,15 0,36 -3,63 -3,24 -6,54 -12,83 -6,30 -12,63 -21,95 -6,30 -18,60 -27,86 -12,27 -27,48 -39,66 -15,18 -30,27 -45,27 -24,0 -54,-12 -92,-33 -36,-21 -81,-45 -131,-72 -54,-24 -113,-48 -185,-69 -72,-24 -149,-33 -239,-33 -92,0 -173,12 -236,39 -66,24 -116,60 -158,101 -42,42 -72,89 -92,143 -18,51 -30,104 -30,158 0,60 18,116 48,164 30,48 72,89 125,131 51,39 110,78 176,116 66,39 134,78 200,119 69,39 137,86 203,134 66,51 125,104 176,170 54,66 95,137 125,221 30,83 48,182 48,289 0,161 -33,310 -98,450 -66,137 -158,256 -277,361 -122,101 -265,182 -435,239 -170,60 -358,89 -567,89 -110,0 -212,-9 -307,-30 -95,-15 -179,-39 -250,-66 -72,-24 -134,-51 -185,-81 -48,-30 -86,-57 -110,-81 -24,-27 -36,-66 -36,-116 0,-15 3,-36 6,-63 3,-30 9,-60 15,-89 6,-33 12,-66 21,-98 9,-33 18,-66 30,-92 12,-27 27,-51 39,-69 15,-15 30,-24 48,-24 30,0 63,12 104,39 42,27 89,57 152,89 60,30 131,63 215,89 81,27 179,42 295,42 101,0 191,-15 268,-39 75,-27 140,-63 191,-107 54,-45 92,-95 116,-155 30,-57 42,-122 42,-191 0,-66 -15,-122 -48,-167 -30,-51 -69,-92 -122,-134 -48,-42 -107,-81 -170,-116 -66,-36 -131,-72 -200,-113 -66,-42 -131,-86 -197,-134 -63,-48 -122,-104 -170,-170 -54,-66 -92,-137 -122,-224 -33,-83 -48,-182 -48,-292 0,-155 30,-298 92,-429 63,-128 146,-242 256,-334 110,-95 242,-167 394,-221 152,-51 322,-78 504,-78 86,0 170,6 248,18 78,15 146,30 212,51 63,18 119,42 164,66 45,24 75,45 92,60 18,18 30,36 39,51 6,21 9,42 9,69l0 0z"/>
 </g>
</svg>
