<?xml version="1.0" encoding="UTF-8"?>
<!DOCTYPE svg PUBLIC "-//W3C//DTD SVG 1.1//EN" "http://www.w3.org/Graphics/SVG/1.1/DTD/svg11.dtd">
<!-- Creator: CorelDRAW X5 -->
<svg xmlns="http://www.w3.org/2000/svg" xml:space="preserve" width="218.902mm" height="91.44mm" style="shape-rendering:geometricPrecision; text-rendering:geometricPrecision; image-rendering:optimizeQuality; fill-rule:evenodd; clip-rule:evenodd"
viewBox="0 0 21890 9144"
 xmlns:xlink="http://www.w3.org/1999/xlink">
 <defs>
  <style type="text/css">
   <![CDATA[
    .fil0 {fill:#25387B}
    .fil1 {fill:#DF2128}
    .fil3 {fill:#25387B;fill-rule:nonzero}
    .fil2 {fill:#25387C;fill-rule:nonzero}
   ]]>
  </style>
 </defs>
 <g id="__x0023_Layer_x0020_1">
  <metadata id="CorelCorpID_0Corel-Layer"/>
  <polygon class="fil0" points="14411,6567 15789,0 20935,0 20590,1642 18017,1642 17845,2463 20034,2463 19690,4105 17500,4105 17328,4925 19902,4925 19558,6567 "/>
  <path class="fil1" d="M0 6567c4577,-2189 10770,-3584 16419,-4104 1526,-141 3038,-219 5143,-219 82,0 219,-27 328,-55l-425 2025c-23,109 -205,164 -342,164 -12906,0 -20631,2189 -20631,2189l-493 0z"/>
  <polygon class="fil0" points="6930,6567 8307,0 10770,0 12235,2983 12860,0 15323,0 13946,6567 11483,6567 10042,3475 9393,6567 "/>
  <path class="fil0" d="M4576 3831l803 -3831 2463 0 -964 4597c-298,1423 -1406,1970 -2876,1970l-1814 0 413 -1970 821 0c602,0 1038,-219 1153,-766z"/>
  <polygon class="fil2" points="12472,8748 12524,8399 13072,8399 13121,8030 12574,8030 12612,7754 13178,7754 13227,7385 12348,7385 12115,9116 13036,9116 13086,8748 "/>
  <path class="fil2" d="M14409 7385l-382 0 -180 315c-27,48 -59,106 -95,173 -28,-89 -43,-139 -46,-149l-114 -339 -327 0 276 850 -496 881 390 0 159 -279c37,-65 67,-119 90,-163 14,46 30,100 50,162l90 280 346 0 -274 -817 513 -914z"/>
  <path class="fil2" d="M15289 7843c0,-95 -14,-178 -42,-248 -30,-73 -72,-128 -124,-161 -52,-33 -121,-49 -206,-49l-471 0 -234 1731 314 0 84 -624 98 0c98,0 164,-4 202,-12 65,-14 117,-35 157,-63 39,-28 76,-68 110,-120 33,-51 60,-117 82,-201 22,-82 33,-167 33,-253zm-580 -94l0 0 114 0c91,0 111,10 113,11 11,6 20,17 27,33 9,19 13,45 13,78 0,52 -10,100 -29,142 -18,40 -41,68 -71,86 -17,10 -67,27 -206,27l-13 0 51 -377z"/>
  <path class="fil2" d="M16119 8509c-16,-40 -32,-76 -49,-107 91,-32 161,-90 211,-173 58,-97 87,-221 87,-368 0,-103 -15,-193 -45,-267 -32,-78 -75,-134 -129,-165 -53,-30 -122,-45 -212,-45l-511 0 -234 1731 314 0 91 -677 47 0c51,0 69,12 73,17 19,21 50,72 84,194 54,193 91,337 109,428l8 38 334 0 -15 -59c-60,-234 -115,-418 -164,-548zm-384 -755l0 0 198 0c75,0 92,14 92,14 21,20 32,54 32,100 0,43 -9,85 -28,125 -18,37 -40,64 -70,80 -17,10 -68,26 -209,26l-61 0 46 -344z"/>
  <polygon class="fil3" points="17312,8399 17362,8030 16815,8030 16853,7754 17418,7754 17468,7385 16589,7385 16355,9116 17276,9116 17327,8748 16713,8748 16765,8399 "/>
  <path class="fil2" d="M17968 7719c46,0 78,14 100,43 25,34 41,86 45,154l3 48 302 -21 -2 -46c-7,-159 -48,-289 -122,-386 -77,-102 -187,-154 -326,-154 -138,0 -245,53 -318,156 -70,99 -105,223 -105,370 0,84 12,159 35,223 24,65 58,119 100,161 40,39 101,86 186,143 101,68 130,97 139,109 19,25 29,56 29,94 0,45 -12,82 -37,113 -22,28 -61,41 -117,41 -90,0 -119,-35 -134,-63 -9,-16 -24,-62 -28,-185l-1 -50 -300 24 -1 43c-2,114 12,217 41,306 30,94 84,168 159,221 74,53 163,80 264,80 147,0 264,-58 347,-173 79,-110 119,-244 119,-398 0,-126 -28,-231 -82,-313 -37,-56 -118,-126 -245,-211 -94,-64 -131,-99 -145,-118 -17,-22 -25,-51 -25,-87 0,-39 9,-70 28,-94 16,-21 47,-31 91,-31z"/>
  <path class="fil2" d="M19037 8049c-95,-64 -131,-99 -145,-118 -17,-22 -26,-51 -26,-87 0,-39 9,-70 28,-94 16,-21 47,-31 91,-31 46,0 78,14 100,43 26,34 41,86 45,154l3 48 302 -21 -2 -46c-7,-159 -48,-289 -122,-386 -77,-102 -187,-154 -326,-154 -138,0 -245,53 -318,156 -70,98 -105,223 -105,370 0,84 12,159 35,223 24,65 58,119 100,161 40,39 101,86 186,143 101,68 130,97 139,109 19,25 29,56 29,94 0,45 -12,82 -37,113 -22,28 -61,41 -117,41 -90,0 -119,-35 -134,-63 -9,-16 -25,-62 -28,-185l-2 -50 -300 24 -1 43c-2,114 12,217 41,306 30,94 84,168 158,221 74,53 163,80 264,80 147,0 264,-58 346,-173 79,-110 120,-244 120,-398 0,-126 -28,-231 -82,-313 -37,-56 -117,-126 -245,-211z"/>
 </g>
</svg>
