<svg id="visual" viewBox="0 0 960 540" width="960" height="540" xmlns="http://www.w3.org/2000/svg" xmlns:xlink="http://www.w3.org/1999/xlink" version="1.1"><path d="M0 377L12.3 373.3C24.7 369.7 49.3 362.3 74 352.8C98.7 343.3 123.3 331.7 148 330.8C172.7 330 197.3 340 221.8 353C246.3 366 270.7 382 295.2 390.5C319.7 399 344.3 400 369 404.3C393.7 408.7 418.3 416.3 443 415.2C467.7 414 492.3 404 517 393.7C541.7 383.3 566.3 372.7 591 373.5C615.7 374.3 640.3 386.7 664.8 384.7C689.3 382.7 713.7 366.3 738.2 370.8C762.7 375.3 787.3 400.7 812 409.3C836.7 418 861.3 410 886 402.3C910.7 394.7 935.3 387.3 947.7 383.7L960 380L960 541L947.7 541C935.3 541 910.7 541 886 541C861.3 541 836.7 541 812 541C787.3 541 762.7 541 738.2 541C713.7 541 689.3 541 664.8 541C640.3 541 615.7 541 591 541C566.3 541 541.7 541 517 541C492.3 541 467.7 541 443 541C418.3 541 393.7 541 369 541C344.3 541 319.7 541 295.2 541C270.7 541 246.3 541 221.8 541C197.3 541 172.7 541 148 541C123.3 541 98.7 541 74 541C49.3 541 24.7 541 12.3 541L0 541Z" fill="#364f6b"></path><path d="M0 357L12.3 355.5C24.7 354 49.3 351 74 359.7C98.7 368.3 123.3 388.7 148 403C172.7 417.3 197.3 425.7 221.8 418C246.3 410.3 270.7 386.7 295.2 387.3C319.7 388 344.3 413 369 419C393.7 425 418.3 412 443 397.5C467.7 383 492.3 367 517 374.8C541.7 382.7 566.3 414.3 591 421.3C615.7 428.3 640.3 410.7 664.8 395.7C689.3 380.7 713.7 368.3 738.2 363.5C762.7 358.7 787.3 361.3 812 375.7C836.7 390 861.3 416 886 421.2C910.7 426.3 935.3 410.7 947.7 402.8L960 395L960 541L947.7 541C935.3 541 910.7 541 886 541C861.3 541 836.7 541 812 541C787.3 541 762.7 541 738.2 541C713.7 541 689.3 541 664.8 541C640.3 541 615.7 541 591 541C566.3 541 541.7 541 517 541C492.3 541 467.7 541 443 541C418.3 541 393.7 541 369 541C344.3 541 319.7 541 295.2 541C270.7 541 246.3 541 221.8 541C197.3 541 172.7 541 148 541C123.3 541 98.7 541 74 541C49.3 541 24.7 541 12.3 541L0 541Z" fill="#386482"></path><path d="M0 416L12.3 423.3C24.7 430.7 49.3 445.3 74 450C98.7 454.7 123.3 449.3 148 447.3C172.7 445.3 197.3 446.7 221.8 440.5C246.3 434.3 270.7 420.7 295.2 411.5C319.7 402.3 344.3 397.7 369 407.2C393.7 416.7 418.3 440.3 443 448.2C467.7 456 492.3 448 517 438.3C541.7 428.7 566.3 417.3 591 418.7C615.7 420 640.3 434 664.8 430C689.3 426 713.7 404 738.2 405.2C762.7 406.3 787.3 430.7 812 436C836.7 441.3 861.3 427.7 886 430C910.7 432.3 935.3 450.7 947.7 459.8L960 469L960 541L947.7 541C935.3 541 910.7 541 886 541C861.3 541 836.7 541 812 541C787.3 541 762.7 541 738.2 541C713.7 541 689.3 541 664.8 541C640.3 541 615.7 541 591 541C566.3 541 541.7 541 517 541C492.3 541 467.7 541 443 541C418.3 541 393.7 541 369 541C344.3 541 319.7 541 295.2 541C270.7 541 246.3 541 221.8 541C197.3 541 172.7 541 148 541C123.3 541 98.7 541 74 541C49.3 541 24.7 541 12.3 541L0 541Z" fill="#367b98"></path><path d="M0 427L12.3 434.8C24.7 442.7 49.3 458.3 74 458.5C98.7 458.7 123.3 443.3 148 434.2C172.7 425 197.3 422 221.8 425.3C246.3 428.7 270.7 438.3 295.2 442.7C319.7 447 344.3 446 369 445.5C393.7 445 418.3 445 443 449.5C467.7 454 492.3 463 517 462.5C541.7 462 566.3 452 591 450.7C615.7 449.3 640.3 456.7 664.8 460.5C689.3 464.3 713.7 464.7 738.2 457.2C762.7 449.7 787.3 434.3 812 428.8C836.7 423.3 861.3 427.7 886 436.2C910.7 444.7 935.3 457.3 947.7 463.7L960 470L960 541L947.7 541C935.3 541 910.7 541 886 541C861.3 541 836.7 541 812 541C787.3 541 762.7 541 738.2 541C713.7 541 689.3 541 664.8 541C640.3 541 615.7 541 591 541C566.3 541 541.7 541 517 541C492.3 541 467.7 541 443 541C418.3 541 393.7 541 369 541C344.3 541 319.7 541 295.2 541C270.7 541 246.3 541 221.8 541C197.3 541 172.7 541 148 541C123.3 541 98.7 541 74 541C49.3 541 24.7 541 12.3 541L0 541Z" fill="#3492ab"></path><path d="M0 494L12.3 490.5C24.7 487 49.3 480 74 476.5C98.7 473 123.3 473 148 470.5C172.7 468 197.3 463 221.8 464.7C246.3 466.3 270.7 474.7 295.2 478.5C319.7 482.3 344.3 481.7 369 480.8C393.7 480 418.3 479 443 479.2C467.7 479.3 492.3 480.7 517 476.2C541.7 471.7 566.3 461.3 591 454.7C615.7 448 640.3 445 664.8 452C689.3 459 713.7 476 738.2 484C762.7 492 787.3 491 812 485C836.7 479 861.3 468 886 466.8C910.7 465.7 935.3 474.3 947.7 478.7L960 483L960 541L947.7 541C935.3 541 910.7 541 886 541C861.3 541 836.7 541 812 541C787.3 541 762.7 541 738.2 541C713.7 541 689.3 541 664.8 541C640.3 541 615.7 541 591 541C566.3 541 541.7 541 517 541C492.3 541 467.7 541 443 541C418.3 541 393.7 541 369 541C344.3 541 319.7 541 295.2 541C270.7 541 246.3 541 221.8 541C197.3 541 172.7 541 148 541C123.3 541 98.7 541 74 541C49.3 541 24.7 541 12.3 541L0 541Z" fill="#35a9bc"></path><path d="M0 490L12.3 493C24.7 496 49.3 502 74 504C98.7 506 123.3 504 148 504.5C172.7 505 197.3 508 221.8 503.8C246.3 499.7 270.7 488.3 295.2 483C319.7 477.7 344.3 478.3 369 483.8C393.7 489.3 418.3 499.7 443 500.7C467.7 501.7 492.3 493.3 517 487.8C541.7 482.3 566.3 479.7 591 480.3C615.7 481 640.3 485 664.8 486.5C689.3 488 713.7 487 738.2 487C762.7 487 787.3 488 812 486.3C836.7 484.7 861.3 480.3 886 481.8C910.7 483.3 935.3 490.7 947.7 494.3L960 498L960 541L947.7 541C935.3 541 910.7 541 886 541C861.3 541 836.7 541 812 541C787.3 541 762.7 541 738.2 541C713.7 541 689.3 541 664.8 541C640.3 541 615.7 541 591 541C566.3 541 541.7 541 517 541C492.3 541 467.7 541 443 541C418.3 541 393.7 541 369 541C344.3 541 319.7 541 295.2 541C270.7 541 246.3 541 221.8 541C197.3 541 172.7 541 148 541C123.3 541 98.7 541 74 541C49.3 541 24.7 541 12.3 541L0 541Z" fill="#3fc1c9"></path></svg>