<?xml version="1.0" encoding="UTF-8"?>
<!DOCTYPE svg PUBLIC "-//W3C//DTD SVG 1.1//EN" "http://www.w3.org/Graphics/SVG/1.1/DTD/svg11.dtd">
<!-- Creator: CorelDRAW X5 -->
<svg xmlns="http://www.w3.org/2000/svg" xml:space="preserve" width="337.738mm" height="91.44mm" style="shape-rendering:geometricPrecision; text-rendering:geometricPrecision; image-rendering:optimizeQuality; fill-rule:evenodd; clip-rule:evenodd"
viewBox="0 0 33774 9144"
 xmlns:xlink="http://www.w3.org/1999/xlink">
 <defs>
  <style type="text/css">
   <![CDATA[
    .fil2 {fill:#70161E}
    .fil1 {fill:#921D26}
    .fil8 {fill:#999999}
    .fil4 {fill:#A11F24}
    .fil7 {fill:#B3B3B3}
    .fil0 {fill:#CAC9C9}
    .fil3 {fill:#D5232B}
    .fil6 {fill:#E6E6E6}
    .fil5 {fill:white}
   ]]>
  </style>
 </defs>
 <g id="Layer_x0020_1">
  <metadata id="CorelCorpID_0Corel-Layer"/>
  <path class="fil0" d="M3066 8568c1680,0 3042,129 3042,288 0,159 -1362,288 -3042,288 -1680,0 -3042,-129 -3042,-288 0,-159 1362,-288 3042,-288z"/>
  <path class="fil1" d="M2899 26l5758 2444c166,70 244,263 173,429l-2444 5758c-70,166 -263,244 -429,173l-5758 -2444c-166,-70 -244,-263 -173,-429l2444 -5758c70,-166 263,-244 429,-173z"/>
  <path class="fil2" d="M8514 2778c12,30 13,65 -1,97l-2364 5570c-27,65 -103,95 -167,68l-5570 -2364c-32,-14 -56,-39 -68,-70l8171 -3301z"/>
  <path class="fil3" d="M2904 533l5386 2286c33,14 48,52 34,85l-2286 5386c-14,33 -52,48 -85,34l-5386 -2286c-33,-14 -48,-52 -34,-85l2286 -5386c14,-33 52,-48 85,-34z"/>
  <path class="fil4" d="M8324 2854c6,15 7,33 0,49l-2286 5386c-14,33 -52,48 -85,34l-5386 -2286c-16,-7 -28,-20 -35,-35l7792 -3148z"/>
  <polygon class="fil5" points="7335,3015 3993,4700 3661,3207 "/>
  <polygon class="fil6" points="1605,5904 4947,4219 5279,5712 "/>
  <polygon class="fil7" points="3993,4700 4947,4219 5017,4535 3993,4700 "/>
  <path class="fil3" d="M13261 2471l0 1020 -235 0c0,0 -402,-59 -402,118 0,176 176,235 422,431 245,196 627,647 627,1167 0,520 -343,1186 -1421,1186 -1078,0 -990,-118 -990,-118l0 -1147c0,0 363,118 696,118 333,0 392,-108 392,-216 0,-108 -1127,-793 -1127,-1480 0,-272 69,-1206 1294,-1206 481,9 745,127 745,127z"/>
  <polygon class="fil3" points="14066,2344 15310,2344 15310,6392 14066,6392 "/>
  <polygon class="fil3" points="20761,5363 21926,5363 21926,6392 20761,6392 19595,6392 19595,2344 20761,2344 21926,2344 21926,3373 20761,3373 20761,3853 21780,3853 21780,4883 20761,4883 "/>
  <path class="fil3" d="M22458 2344l48 0 1122 0 368 0c860,0 1564,704 1564,1564l0 0c0,860 -630,1564 -1489,1564l-368 0 0 922 -1244 0 0 -4049zm1244 1078l0 971 69 0c267,0 485,-218 485,-485l0 0c0,-267 -218,-485 -485,-485l-69 0z"/>
  <path class="fil3" d="M17908 2339c536,0 1023,208 1385,548l-712 906c-162,-191 -403,-312 -673,-312 -487,0 -882,395 -882,882 0,487 395,882 882,882 270,0 511,-121 673,-312l712 906c-362,340 -849,548 -1385,548 -1118,0 -2024,-906 -2024,-2024 0,-1118 906,-2024 2024,-2024z"/>
  <polygon class="fil3" points="27229,2344 29353,6392 25104,6392 "/>
  <polygon class="fil6" points="26717,6392 25901,6392 27261,4318 28251,5397 "/>
  <polygon class="fil7" points="26700,5173 27261,4318 27471,4546 26700,5173 "/>
  <polygon class="fil5" points="27528,2915 27818,3468 26700,5173 26092,4510 26620,3504 "/>
  <polygon class="fil3" points="29790,2344 31034,2344 31775,2344 31775,3412 31034,3412 31034,6392 29790,6392 29790,3412 29050,3412 29050,2344 "/>
  <path class="fil8" d="M22535 7323l29 -200 -1135 0 -30 200 228 0 415 0 492 0zm-1210 494l-138 914 1169 0 29 -200 -939 0 78 -519 808 0 30 -195 -295 0 -514 0 -228 0zm2515 53l830 -746 -299 0 -986 889 134 -889 -230 0 -243 1608 230 0 62 -418 339 -303 524 721 257 0 -623 -857 4 -5zm1640 880c400,0 671,-188 655,-501 -24,-489 -841,-328 -857,-666 -8,-170 154,-283 418,-283 163,0 319,44 443,129l83 -188c-135,-87 -326,-136 -523,-136 -393,0 -659,191 -644,498 25,514 841,342 858,678 9,175 -161,273 -421,273 -200,0 -403,-71 -530,-184l-92 184c123,110 366,195 611,195zm2090 -1626l-597 0 -243 1608 230 0 73 -487 430 0c464,0 742,-239 722,-650 -15,-299 -239,-471 -613,-471zm-114 921l-393 0 110 -721 386 0c243,0 386,99 395,292 14,283 -170,430 -498,430zm2687 -450c-15,-299 -239,-471 -616,-471l-599 0 -243 1608 232 0 73 -492 429 0 44 0 304 492 243 0 -320 -524c299,-78 468,-294 452,-613zm-727 450l-397 0 110 -721 388 0c246,0 388,99 398,292 14,283 -170,430 -498,430zm2607 -721l29 -200 -1135 0 -30 200 228 0 907 0zm-1210 494l-138 914 1169 0 29 -200 -939 0 78 -519 808 0 30 -195 -808 0 -228 0zm2218 933c400,0 671,-188 655,-501 -24,-489 -841,-328 -857,-666 -8,-170 154,-283 418,-283 163,0 319,44 443,129l83 -188c-135,-87 -326,-136 -523,-136 -393,0 -659,191 -644,498 25,514 841,342 858,678 9,175 -161,273 -421,273 -200,0 -403,-71 -530,-184l-92 184c123,110 366,195 611,195z"/>
 </g>
</svg>
